HIERARCHY
ROOT RootJoint
{
    OFFSET   0.000000   0.000000   0.000000
    CHANNELS 6 Xposition Yposition Zposition Xrotation Yrotation Zrotation
    JOINT pelvis_lowerback
    {
        OFFSET   0.000000   0.093605   0.000000
        CHANNELS 3 Xrotation Yrotation Zrotation
        JOINT lowerback_torso
        {
            OFFSET   0.000000   0.100000   0.000000
            CHANNELS 3 Xrotation Yrotation Zrotation
            JOINT torso_head
            {
                OFFSET   0.000000   0.282350   0.000000
                CHANNELS 3 Xrotation Yrotation Zrotation
                End Site
                {
                    OFFSET   0.000000   0.192650   0.000000
                }
            }
            JOINT rTorso_Clavicle
            {
                OFFSET  -0.001000   0.157500   0.000000
                CHANNELS 3 Xrotation Yrotation Zrotation
                JOINT rShoulder
                {
                    OFFSET  -0.117647   0.000000   0.000000
                    CHANNELS 3 Xrotation Yrotation Zrotation
                    JOINT rElbow
                    {
                        OFFSET  -0.245000   0.000000   0.000000
                        CHANNELS 3 Xrotation Yrotation Zrotation
                        JOINT rWrist
                        {
                            OFFSET  -0.240000   0.000000   0.000000
                            CHANNELS 3 Xrotation Yrotation Zrotation
                            End Site
                            {
                                OFFSET  -0.116353  -0.002500   0.000000
                            }
                        }
                    }
                }
            }
            JOINT lTorso_Clavicle
            {
                OFFSET   0.001000   0.157500   0.000000
                CHANNELS 3 Xrotation Yrotation Zrotation
                JOINT lShoulder
                {
                    OFFSET   0.117647   0.000000   0.000000
                    CHANNELS 3 Xrotation Yrotation Zrotation
                    JOINT lElbow
                    {
                        OFFSET   0.245000   0.000000   0.000000
                        CHANNELS 3 Xrotation Yrotation Zrotation
                        JOINT lWrist
                        {
                            OFFSET   0.240000   0.000000   0.000000
                            CHANNELS 3 Xrotation Yrotation Zrotation
                            End Site
                            {
                                OFFSET   0.116353  -0.002500   0.000000
                            }
                        }
                    }
                }
            }
        }
    }
    JOINT rHip
    {
        OFFSET  -0.100000  -0.051395   0.000000
        CHANNELS 3 Xrotation Yrotation Zrotation
        JOINT rKnee
        {
            OFFSET   0.000000  -0.410000   0.000000
            CHANNELS 3 Xrotation Yrotation Zrotation
            JOINT rAnkle
            {
                OFFSET   0.000000  -0.390000   0.000000
                CHANNELS 3 Xrotation Yrotation Zrotation
                JOINT rToeJoint
                {
                    OFFSET   0.000000  -0.050000   0.130000
                    CHANNELS 3 Xrotation Yrotation Zrotation
                    End Site
                    {
                        OFFSET  -0.010000   0.002000   0.060000
                    }
                }
            }
        }
    }
    JOINT lHip
    {
        OFFSET   0.100000  -0.051395   0.000000
        CHANNELS 3 Xrotation Yrotation Zrotation
        JOINT lKnee
        {
            OFFSET   0.000000  -0.410000   0.000000
            CHANNELS 3 Xrotation Yrotation Zrotation
            JOINT lAnkle
            {
                OFFSET   0.000000  -0.390000   0.000000
                CHANNELS 3 Xrotation Yrotation Zrotation
                JOINT lToeJoint
                {
                    OFFSET   0.000000  -0.050000   0.130000
                    CHANNELS 3 Xrotation Yrotation Zrotation
                    End Site
                    {
                        OFFSET   0.010000   0.002000   0.060000
                    }
                }
            }
        }
    }
}
MOTION
Frames: 10
Frame Time:   0.008333
 -2.331593   0.749031   5.440620   4.472721  17.625846  -5.022845  68.519829   0.239666   5.975514   7.477630  -0.877864   3.791232  -5.187114   0.566935  -8.264966 -19.331433  41.930849  10.338244 -26.576667  19.707817  20.006702  -0.000609   7.952073   0.007294  -4.609929   1.507990 -13.646803 -23.066909 -42.875976 -14.184255 -20.039752 -20.341812 -15.623371  -0.032920 -20.604423  -0.032531  -1.991362  -4.995914  14.688495 -58.455890  -3.413408   1.872471  61.591939  -0.015310  -0.001050  -3.572709  -7.834468  -0.729756  -5.746900   0.001976   0.000967 -55.542802  -1.107044   8.615999  95.778164   0.011580  -0.001133 -19.677480   2.273678  -1.619813  -8.418273   0.009751   0.005877
 -2.332255   0.745850   5.444697   5.084346  17.366064  -5.148763  70.356983   0.220721   5.860194   7.435598  -1.067916   3.412779  -4.993295   0.524914  -8.586464 -19.964898  43.628548  10.129065 -27.824416  20.630780  19.169542  -0.000444   7.961228   0.005783  -4.748902   1.704115 -13.967373 -23.286037 -42.770124 -13.651421 -20.302263 -21.067239 -14.561303  -0.029229 -20.037976  -0.029032  -2.086109  -5.301927  14.500699 -59.556652  -3.434546   2.055557  62.781760  -0.014054  -0.000715  -4.023637  -7.823791  -0.719028  -6.143732   0.002082   0.000885 -57.653634  -0.973747   8.398028  95.110808   0.008327   0.001215 -19.351223   2.587168  -1.353334  -7.966593   0.008180   0.004601
 -2.332671   0.742517   5.449255   5.886215  17.283449  -5.414748  71.672541   0.456995   6.037493   7.116357  -0.873085   3.182500  -4.650158   0.423692  -8.942960 -19.971414  43.538474   9.616594 -29.141287  21.954056  18.717438  -0.000313   8.121335   0.004528  -4.738426   2.462763 -13.773094 -23.608060 -42.652319 -12.841948 -20.656582 -22.194730 -13.571499  -0.020762 -19.484929  -0.026807  -2.380191  -4.842321  12.960336 -60.801611  -3.500783   2.177268  64.026955  -0.012172   0.000796  -4.587025  -7.834973  -0.688724  -6.486932   0.001971   0.000495 -59.038746  -0.527294   8.638429  94.044921   0.001379  -0.000567 -19.081643   2.875910  -1.107483  -7.635530   0.007188   0.005482
 -2.332889   0.739471   5.453720   6.712347  17.235673  -5.636895  72.884922   0.638508   6.192536   6.758461  -0.759732   3.004653  -4.443291   0.371639  -9.206769 -19.977013  43.467087   9.084019 -30.275809  22.925624  18.130699  -0.000373   8.198858   0.003574  -4.770539   3.073303 -13.766870 -23.912330 -42.548783 -12.161555 -20.909946 -22.884994 -12.456239  -0.014111 -18.999066  -0.024181  -2.493983  -5.048434  12.793709 -62.031641  -3.525409   2.233163  65.207075  -0.010379   0.001913  -5.112850  -7.854607  -0.668346  -6.841922   0.001798   0.000184 -60.364148  -0.281685   8.737900  93.179239  -0.001355  -0.001335 -18.798182   3.153454  -0.880803  -7.181410   0.005955   0.006241
 -2.332931   0.736785   5.458070   7.505362  17.150526  -5.800362  74.026946   0.782280   6.288757   6.428078  -0.683038   2.817570  -4.274659   0.325763  -9.439459 -19.994506  43.408214   8.547573 -31.288030  23.708682  17.478603  -0.000344   8.218049   0.002841  -4.856340   3.416608 -13.975936 -24.177180 -42.461272 -11.535358 -21.094383 -23.363633 -11.343702  -0.009074 -18.508739  -0.021978  -2.599236  -5.261355  13.034837 -63.181136  -3.524906   2.269534  66.289021  -0.009040   0.002242  -5.586085  -7.881874  -0.657995  -7.204766   0.001654   0.000106 -61.617435  -0.126569   8.769743  92.445771  -0.002126  -0.001415 -18.530227   3.415723  -0.669695  -6.757045   0.004594   0.006226
 -2.332831   0.734447   5.462312   8.256157  17.036026  -5.917885  75.101657   0.896922   6.342474   6.134145  -0.633243   2.618217  -4.121223   0.282786  -9.655633 -20.020145  43.359663   8.024907 -32.208285  24.381572  16.814180  -0.000246   8.207559   0.002285  -4.973641   3.587859 -14.315015 -24.407736 -42.387247 -10.960676 -21.239660 -23.730352 -10.283100  -0.005471 -18.023710  -0.020052  -2.722103  -5.361876  13.378205 -64.239887  -3.511261   2.293522  67.274760  -0.008038   0.002079  -6.012005  -7.907840  -0.654950  -7.572191   0.001540   0.000175 -62.802628  -0.010596   8.775193  91.797365  -0.002119  -0.001238 -18.279724   3.662222  -0.473461  -6.370071   0.003359   0.005844
 -2.332634   0.732424   5.466455   8.961810  16.913023  -6.004315  76.112918   0.988016   6.370543   5.875789  -0.603576   2.415520  -3.979465   0.242425  -9.857495 -20.047474  43.320232   7.524396 -33.053271  24.983320  16.166841  -0.000132   8.182971   0.001864  -5.105701   3.665940 -14.717066 -24.604157 -42.325545 -10.436231 -21.357851 -24.029953  -9.291612  -0.003066 -17.556311  -0.018288  -2.855927  -5.386506  13.736382 -65.208472  -3.481014   2.310346  68.174697  -0.007157   0.001793  -6.395157  -7.919360  -0.658840  -7.945445   0.001415   0.000230 -63.927341   0.079495   8.768120  91.212031  -0.001825  -0.001003 -18.046022   3.893549  -0.291170  -6.016858   0.002331   0.005334
 -2.332271   0.730807   5.470609   9.371824  16.805800  -6.050890  77.196707   0.896487   6.401003   5.606454  -0.770249   2.165227  -3.796037   0.154982 -10.076897 -19.807866  43.334380   6.790912 -34.023577  25.430915  15.618000  -0.000459   8.248181   0.001351  -5.243137   3.906047 -14.662234 -24.673621 -42.296036  -9.855346 -21.632396 -24.136298  -8.503318  -0.001516 -17.049809  -0.015652  -3.056586  -5.089784  14.140877 -65.758642  -3.299432   2.469534  68.931182  -0.005455   0.002601  -6.956385  -8.025314  -0.632956  -8.021128   0.001139   0.000144 -64.761701   0.162104   8.797215  90.823755  -0.001642  -0.000810 -17.894147   4.057750  -0.011327  -5.667563   0.001295   0.004739
 -2.331501   0.729298   5.474703   9.746227  16.566285  -6.142562  77.978198   0.928349   6.497055   5.277823  -0.739830   1.941434  -3.589677   0.039387 -10.364058 -19.615601  43.348762   6.212892 -34.975847  25.810772  15.098219  -0.000093   8.199233   0.000993  -5.448321   3.780804 -15.039718 -24.623214 -42.296000  -9.163298 -21.826827 -24.340022  -7.861357   0.000446 -16.595596  -0.014693  -3.280569  -4.758127  13.899816 -66.304697  -3.225121   2.676964  69.672202  -0.004508   0.002361  -7.264461  -8.070769  -0.599992  -8.424346   0.000999   0.000179 -65.088772   0.354447   9.035882  90.345287  -0.001659  -0.000926 -17.773273   4.208798   0.248004  -5.443703   0.000664   0.004215
 -2.330630   0.728032   5.478495  10.142767  16.354735  -6.221313  78.717666   0.942200   6.582195   4.878203  -0.732823   1.758338  -3.493226  -0.042507 -10.575916 -19.437397  43.364980   5.663494 -35.902015  26.258749  14.665119   0.000085   8.169734   0.000740  -5.657860   3.661190 -15.560120 -24.621406 -42.288614  -8.606539 -22.068130 -24.574152  -7.251315   0.001904 -16.201978  -0.013081  -3.445629  -4.586724  14.002117 -66.856268  -3.180656   2.810121  70.348804  -0.003835   0.001843  -7.476202  -8.078709  -0.572025  -8.898456   0.000885   0.000271 -65.479886   0.482407   9.173766  90.022714  -0.001391  -0.000744 -17.640164   4.353961   0.489847  -5.145424  -0.000016   0.003713
